G04 #@! TF.GenerationSoftware,KiCad,Pcbnew,(5.0.2)-1*
G04 #@! TF.CreationDate,2020-06-20T00:38:57-07:00*
G04 #@! TF.ProjectId,G6 Mag Charger,4736204d-6167-4204-9368-61726765722e,rev?*
G04 #@! TF.SameCoordinates,Original*
G04 #@! TF.FileFunction,Soldermask,Top*
G04 #@! TF.FilePolarity,Negative*
%FSLAX46Y46*%
G04 Gerber Fmt 4.6, Leading zero omitted, Abs format (unit mm)*
G04 Created by KiCad (PCBNEW (5.0.2)-1) date 6/20/2020 12:38:57 AM*
%MOMM*%
%LPD*%
G01*
G04 APERTURE LIST*
%ADD10C,0.100000*%
G04 APERTURE END LIST*
D10*
G36*
X155477400Y-110111400D02*
X154575400Y-110111400D01*
X154575400Y-109109400D01*
X155477400Y-109109400D01*
X155477400Y-110111400D01*
X155477400Y-110111400D01*
G37*
G36*
X153577400Y-110111400D02*
X152675400Y-110111400D01*
X152675400Y-109109400D01*
X153577400Y-109109400D01*
X153577400Y-110111400D01*
X153577400Y-110111400D01*
G37*
G36*
X149509600Y-110088200D02*
X146857600Y-110088200D01*
X146857600Y-108926200D01*
X149509600Y-108926200D01*
X149509600Y-110088200D01*
X149509600Y-110088200D01*
G37*
G36*
X154527400Y-108111400D02*
X153625400Y-108111400D01*
X153625400Y-107109400D01*
X154527400Y-107109400D01*
X154527400Y-108111400D01*
X154527400Y-108111400D01*
G37*
G36*
X147609600Y-107888200D02*
X146857600Y-107888200D01*
X146857600Y-106726200D01*
X147609600Y-106726200D01*
X147609600Y-107888200D01*
X147609600Y-107888200D01*
G37*
G36*
X149509600Y-107888200D02*
X148757600Y-107888200D01*
X148757600Y-106726200D01*
X149509600Y-106726200D01*
X149509600Y-107888200D01*
X149509600Y-107888200D01*
G37*
G36*
X151458685Y-104311396D02*
X151458687Y-104311397D01*
X151458688Y-104311397D01*
X151695455Y-104409469D01*
X151908542Y-104551849D01*
X152089751Y-104733058D01*
X152232131Y-104946145D01*
X152330204Y-105182915D01*
X152380200Y-105434261D01*
X152380200Y-105690539D01*
X152330204Y-105941885D01*
X152232131Y-106178655D01*
X152089751Y-106391742D01*
X151908542Y-106572951D01*
X151908539Y-106572953D01*
X151695455Y-106715331D01*
X151458688Y-106813403D01*
X151458687Y-106813403D01*
X151458685Y-106813404D01*
X151207339Y-106863400D01*
X150951061Y-106863400D01*
X150699715Y-106813404D01*
X150699713Y-106813403D01*
X150699712Y-106813403D01*
X150462945Y-106715331D01*
X150249861Y-106572953D01*
X150249858Y-106572951D01*
X150068649Y-106391742D01*
X149926269Y-106178655D01*
X149828196Y-105941885D01*
X149778200Y-105690539D01*
X149778200Y-105434261D01*
X149828196Y-105182915D01*
X149926269Y-104946145D01*
X150068649Y-104733058D01*
X150249858Y-104551849D01*
X150462945Y-104409469D01*
X150699712Y-104311397D01*
X150699713Y-104311397D01*
X150699715Y-104311396D01*
X150951061Y-104261400D01*
X151207339Y-104261400D01*
X151458685Y-104311396D01*
X151458685Y-104311396D01*
G37*
G36*
X153107400Y-102755000D02*
X152505400Y-102755000D01*
X152505400Y-102053000D01*
X153107400Y-102053000D01*
X153107400Y-102755000D01*
X153107400Y-102755000D01*
G37*
G36*
X155545800Y-102755000D02*
X154943800Y-102755000D01*
X154943800Y-102053000D01*
X155545800Y-102053000D01*
X155545800Y-102755000D01*
X155545800Y-102755000D01*
G37*
G36*
X147314600Y-102755000D02*
X146512600Y-102755000D01*
X146512600Y-102053000D01*
X147314600Y-102053000D01*
X147314600Y-102755000D01*
X147314600Y-102755000D01*
G37*
G36*
X151480200Y-102755000D02*
X150678200Y-102755000D01*
X150678200Y-102053000D01*
X151480200Y-102053000D01*
X151480200Y-102755000D01*
X151480200Y-102755000D01*
G37*
G36*
X148433000Y-102555000D02*
X147731000Y-102555000D01*
X147731000Y-102053000D01*
X148433000Y-102053000D01*
X148433000Y-102555000D01*
X148433000Y-102555000D01*
G37*
G36*
X149652200Y-102555000D02*
X148950200Y-102555000D01*
X148950200Y-102053000D01*
X149652200Y-102053000D01*
X149652200Y-102555000D01*
X149652200Y-102555000D01*
G37*
G36*
X154376600Y-102555000D02*
X153674600Y-102555000D01*
X153674600Y-102053000D01*
X154376600Y-102053000D01*
X154376600Y-102555000D01*
X154376600Y-102555000D01*
G37*
G36*
X149652200Y-101655000D02*
X148950200Y-101655000D01*
X148950200Y-101153000D01*
X149652200Y-101153000D01*
X149652200Y-101655000D01*
X149652200Y-101655000D01*
G37*
G36*
X148433000Y-101655000D02*
X147731000Y-101655000D01*
X147731000Y-101153000D01*
X148433000Y-101153000D01*
X148433000Y-101655000D01*
X148433000Y-101655000D01*
G37*
G36*
X147314600Y-101655000D02*
X146512600Y-101655000D01*
X146512600Y-100953000D01*
X147314600Y-100953000D01*
X147314600Y-101655000D01*
X147314600Y-101655000D01*
G37*
G36*
X151480200Y-101655000D02*
X150678200Y-101655000D01*
X150678200Y-100953000D01*
X151480200Y-100953000D01*
X151480200Y-101655000D01*
X151480200Y-101655000D01*
G37*
G36*
X153107400Y-101655000D02*
X152505400Y-101655000D01*
X152505400Y-100953000D01*
X153107400Y-100953000D01*
X153107400Y-101655000D01*
X153107400Y-101655000D01*
G37*
G36*
X154376600Y-101655000D02*
X153674600Y-101655000D01*
X153674600Y-101153000D01*
X154376600Y-101153000D01*
X154376600Y-101655000D01*
X154376600Y-101655000D01*
G37*
G36*
X155545800Y-101655000D02*
X154943800Y-101655000D01*
X154943800Y-100953000D01*
X155545800Y-100953000D01*
X155545800Y-101655000D01*
X155545800Y-101655000D01*
G37*
M02*
