G04 #@! TF.GenerationSoftware,KiCad,Pcbnew,(5.0.2)-1*
G04 #@! TF.CreationDate,2020-06-20T00:38:57-07:00*
G04 #@! TF.ProjectId,G6 Mag Charger,4736204d-6167-4204-9368-61726765722e,rev?*
G04 #@! TF.SameCoordinates,Original*
G04 #@! TF.FileFunction,Soldermask,Bot*
G04 #@! TF.FilePolarity,Negative*
%FSLAX46Y46*%
G04 Gerber Fmt 4.6, Leading zero omitted, Abs format (unit mm)*
G04 Created by KiCad (PCBNEW (5.0.2)-1) date 6/20/2020 12:38:57 AM*
%MOMM*%
%LPD*%
G01*
G04 APERTURE LIST*
%ADD10C,0.100000*%
G04 APERTURE END LIST*
D10*
G36*
X151630200Y-110423400D02*
X150528200Y-110423400D01*
X150528200Y-108321400D01*
X151630200Y-108321400D01*
X151630200Y-110423400D01*
X151630200Y-110423400D01*
G37*
G36*
X155870000Y-110353200D02*
X154518000Y-110353200D01*
X154518000Y-109001200D01*
X155870000Y-109001200D01*
X155870000Y-110353200D01*
X155870000Y-110353200D01*
G37*
G36*
X151458685Y-104311396D02*
X151458687Y-104311397D01*
X151458688Y-104311397D01*
X151695455Y-104409469D01*
X151908542Y-104551849D01*
X152089751Y-104733058D01*
X152089753Y-104733061D01*
X152232131Y-104946145D01*
X152302225Y-105115366D01*
X152330204Y-105182915D01*
X152380200Y-105434261D01*
X152380200Y-105690537D01*
X152330203Y-105941888D01*
X152255219Y-106122915D01*
X152232131Y-106178655D01*
X152089751Y-106391742D01*
X151908542Y-106572951D01*
X151908539Y-106572953D01*
X151695455Y-106715331D01*
X151458688Y-106813403D01*
X151458687Y-106813403D01*
X151458685Y-106813404D01*
X151207339Y-106863400D01*
X150951061Y-106863400D01*
X150699715Y-106813404D01*
X150699713Y-106813403D01*
X150699712Y-106813403D01*
X150462945Y-106715331D01*
X150249861Y-106572953D01*
X150249858Y-106572951D01*
X150068649Y-106391742D01*
X149926269Y-106178655D01*
X149903181Y-106122915D01*
X149828197Y-105941888D01*
X149778200Y-105690537D01*
X149778200Y-105434261D01*
X149828196Y-105182915D01*
X149856176Y-105115366D01*
X149926269Y-104946145D01*
X150068647Y-104733061D01*
X150068649Y-104733058D01*
X150249858Y-104551849D01*
X150462945Y-104409469D01*
X150699712Y-104311397D01*
X150699713Y-104311397D01*
X150699715Y-104311396D01*
X150951061Y-104261400D01*
X151207339Y-104261400D01*
X151458685Y-104311396D01*
X151458685Y-104311396D01*
G37*
G36*
X154738565Y-104602589D02*
X154929834Y-104681815D01*
X155101976Y-104796837D01*
X155248365Y-104943226D01*
X155256798Y-104955847D01*
X155272343Y-104974789D01*
X155291285Y-104990334D01*
X155312896Y-105001885D01*
X155336345Y-105008998D01*
X155360731Y-105011400D01*
X155940200Y-105011400D01*
X155940200Y-106113400D01*
X155428618Y-106113400D01*
X155404232Y-106115802D01*
X155380783Y-106122915D01*
X155359172Y-106134466D01*
X155340230Y-106150012D01*
X155324684Y-106168954D01*
X155248363Y-106283176D01*
X155101976Y-106429563D01*
X154929834Y-106544585D01*
X154738565Y-106623811D01*
X154535516Y-106664200D01*
X154328484Y-106664200D01*
X154125435Y-106623811D01*
X153934166Y-106544585D01*
X153762024Y-106429563D01*
X153615637Y-106283176D01*
X153500615Y-106111034D01*
X153421389Y-105919765D01*
X153381000Y-105716716D01*
X153381000Y-105509684D01*
X153421389Y-105306635D01*
X153500615Y-105115366D01*
X153615637Y-104943224D01*
X153762024Y-104796837D01*
X153934166Y-104681815D01*
X154125435Y-104602589D01*
X154328484Y-104562200D01*
X154535516Y-104562200D01*
X154738565Y-104602589D01*
X154738565Y-104602589D01*
G37*
G36*
X148320200Y-106113400D02*
X146218200Y-106113400D01*
X146218200Y-105011400D01*
X148320200Y-105011400D01*
X148320200Y-106113400D01*
X148320200Y-106113400D01*
G37*
G36*
X151630200Y-102803400D02*
X150528200Y-102803400D01*
X150528200Y-100701400D01*
X151630200Y-100701400D01*
X151630200Y-102803400D01*
X151630200Y-102803400D01*
G37*
G36*
X155870000Y-102123600D02*
X154518000Y-102123600D01*
X154518000Y-100771600D01*
X155870000Y-100771600D01*
X155870000Y-102123600D01*
X155870000Y-102123600D01*
G37*
M02*
