G04 #@! TF.GenerationSoftware,KiCad,Pcbnew,(5.0.2)-1*
G04 #@! TF.CreationDate,2020-06-20T00:38:57-07:00*
G04 #@! TF.ProjectId,G6 Mag Charger,4736204d-6167-4204-9368-61726765722e,rev?*
G04 #@! TF.SameCoordinates,Original*
G04 #@! TF.FileFunction,Legend,Bot*
G04 #@! TF.FilePolarity,Positive*
%FSLAX46Y46*%
G04 Gerber Fmt 4.6, Leading zero omitted, Abs format (unit mm)*
G04 Created by KiCad (PCBNEW (5.0.2)-1) date 6/20/2020 12:38:57 AM*
%MOMM*%
%LPD*%
G01*
G04 APERTURE LIST*
%ADD10C,0.062500*%
%ADD11C,0.150000*%
G04 APERTURE END LIST*
D10*
X154363342Y-101010304D02*
X154375247Y-101046019D01*
X154387152Y-101057923D01*
X154410961Y-101069828D01*
X154446676Y-101069828D01*
X154470485Y-101057923D01*
X154482390Y-101046019D01*
X154494295Y-101022209D01*
X154494295Y-100926971D01*
X154244295Y-100926971D01*
X154244295Y-101010304D01*
X154256200Y-101034114D01*
X154268104Y-101046019D01*
X154291914Y-101057923D01*
X154315723Y-101057923D01*
X154339533Y-101046019D01*
X154351438Y-101034114D01*
X154363342Y-101010304D01*
X154363342Y-100926971D01*
X154494295Y-101284114D02*
X154363342Y-101284114D01*
X154339533Y-101272209D01*
X154327628Y-101248400D01*
X154327628Y-101200780D01*
X154339533Y-101176971D01*
X154482390Y-101284114D02*
X154494295Y-101260304D01*
X154494295Y-101200780D01*
X154482390Y-101176971D01*
X154458580Y-101165066D01*
X154434771Y-101165066D01*
X154410961Y-101176971D01*
X154399057Y-101200780D01*
X154399057Y-101260304D01*
X154387152Y-101284114D01*
X154327628Y-101367447D02*
X154327628Y-101462685D01*
X154244295Y-101403161D02*
X154458580Y-101403161D01*
X154482390Y-101415066D01*
X154494295Y-101438876D01*
X154494295Y-101462685D01*
X154327628Y-101510304D02*
X154327628Y-101605542D01*
X154244295Y-101546019D02*
X154458580Y-101546019D01*
X154482390Y-101557923D01*
X154494295Y-101581733D01*
X154494295Y-101605542D01*
X154399057Y-101879352D02*
X154399057Y-102069828D01*
X154494295Y-101974590D02*
X154303819Y-101974590D01*
X155577000Y-106895923D02*
X155565095Y-106872114D01*
X155565095Y-106836400D01*
X155577000Y-106800685D01*
X155600809Y-106776876D01*
X155624619Y-106764971D01*
X155672238Y-106753066D01*
X155707952Y-106753066D01*
X155755571Y-106764971D01*
X155779380Y-106776876D01*
X155803190Y-106800685D01*
X155815095Y-106836400D01*
X155815095Y-106860209D01*
X155803190Y-106895923D01*
X155791285Y-106907828D01*
X155707952Y-106907828D01*
X155707952Y-106860209D01*
X155815095Y-107014971D02*
X155565095Y-107014971D01*
X155815095Y-107157828D01*
X155565095Y-107157828D01*
X155815095Y-107276876D02*
X155565095Y-107276876D01*
X155565095Y-107336400D01*
X155577000Y-107372114D01*
X155600809Y-107395923D01*
X155624619Y-107407828D01*
X155672238Y-107419733D01*
X155707952Y-107419733D01*
X155755571Y-107407828D01*
X155779380Y-107395923D01*
X155803190Y-107372114D01*
X155815095Y-107336400D01*
X155815095Y-107276876D01*
X154142695Y-109046247D02*
X154142695Y-109189104D01*
X154392695Y-109117676D02*
X154142695Y-109117676D01*
X154392695Y-109272438D02*
X154226028Y-109272438D01*
X154273647Y-109272438D02*
X154249838Y-109284342D01*
X154237933Y-109296247D01*
X154226028Y-109320057D01*
X154226028Y-109343866D01*
X154392695Y-109534342D02*
X154261742Y-109534342D01*
X154237933Y-109522438D01*
X154226028Y-109498628D01*
X154226028Y-109451009D01*
X154237933Y-109427200D01*
X154380790Y-109534342D02*
X154392695Y-109510533D01*
X154392695Y-109451009D01*
X154380790Y-109427200D01*
X154356980Y-109415295D01*
X154333171Y-109415295D01*
X154309361Y-109427200D01*
X154297457Y-109451009D01*
X154297457Y-109510533D01*
X154285552Y-109534342D01*
X154226028Y-109653390D02*
X154392695Y-109653390D01*
X154249838Y-109653390D02*
X154237933Y-109665295D01*
X154226028Y-109689104D01*
X154226028Y-109724819D01*
X154237933Y-109748628D01*
X154261742Y-109760533D01*
X154392695Y-109760533D01*
X154380790Y-109867676D02*
X154392695Y-109891485D01*
X154392695Y-109939104D01*
X154380790Y-109962914D01*
X154356980Y-109974819D01*
X154345076Y-109974819D01*
X154321266Y-109962914D01*
X154309361Y-109939104D01*
X154309361Y-109903390D01*
X154297457Y-109879580D01*
X154273647Y-109867676D01*
X154261742Y-109867676D01*
X154237933Y-109879580D01*
X154226028Y-109903390D01*
X154226028Y-109939104D01*
X154237933Y-109962914D01*
X154297457Y-110081961D02*
X154297457Y-110272438D01*
X154392695Y-110177200D02*
X154202219Y-110177200D01*
X148771872Y-101102056D02*
X148559740Y-100889924D01*
X148630451Y-101243477D02*
X148615298Y-101016193D01*
X148418319Y-101031345D02*
X148680958Y-101011142D01*
X148524385Y-101349543D02*
X148382963Y-101208122D01*
X148312253Y-101137411D02*
X148334139Y-101135728D01*
X148332456Y-101157614D01*
X148310569Y-101159298D01*
X148312253Y-101137411D01*
X148332456Y-101157614D01*
X148290366Y-101563359D02*
X148324038Y-101549890D01*
X148371178Y-101502750D01*
X148384647Y-101469078D01*
X148386331Y-101447191D01*
X148377913Y-101415203D01*
X148317303Y-101354594D01*
X148285315Y-101346176D01*
X148263429Y-101347860D01*
X148229757Y-101361328D01*
X148182616Y-101408469D01*
X148169148Y-101442141D01*
X148194402Y-101679526D02*
X147982269Y-101467394D01*
X148090019Y-101622284D02*
X148100121Y-101773807D01*
X147958699Y-101632386D02*
X148133792Y-101618917D01*
X147889672Y-101964053D02*
X147923344Y-101950584D01*
X147970484Y-101903444D01*
X147983953Y-101869772D01*
X147975535Y-101837784D01*
X147894723Y-101756971D01*
X147862735Y-101748554D01*
X147829063Y-101762022D01*
X147781923Y-101809163D01*
X147768454Y-101842834D01*
X147776872Y-101874823D01*
X147797075Y-101895026D01*
X147935129Y-101797378D01*
X147781923Y-102092005D02*
X147640501Y-101950584D01*
X147680907Y-101990990D02*
X147648919Y-101982572D01*
X147627033Y-101984256D01*
X147593361Y-101997725D01*
X147569791Y-102021295D01*
X147448572Y-102041498D02*
X147426686Y-102043181D01*
X147393014Y-102056650D01*
X147334088Y-102115576D01*
X147320620Y-102149247D01*
X147318936Y-102171134D01*
X147327354Y-102203122D01*
X147347557Y-102223325D01*
X147389647Y-102241845D01*
X147652286Y-102221642D01*
X147499080Y-102374848D01*
X147212870Y-102277200D02*
X147190983Y-102278884D01*
X147157312Y-102292352D01*
X147098386Y-102351278D01*
X147084917Y-102384950D01*
X147083234Y-102406836D01*
X147091652Y-102438824D01*
X147111855Y-102459028D01*
X147153944Y-102477547D01*
X147416584Y-102457344D01*
X147263378Y-102610550D01*
X146898039Y-102551625D02*
X146874469Y-102575195D01*
X146861000Y-102608867D01*
X146859317Y-102630753D01*
X146867735Y-102662742D01*
X146896356Y-102714933D01*
X146946863Y-102765440D01*
X146999054Y-102794061D01*
X147031043Y-102802479D01*
X147052929Y-102800796D01*
X147086601Y-102787327D01*
X147110171Y-102763757D01*
X147123640Y-102730085D01*
X147125323Y-102708198D01*
X147116905Y-102676210D01*
X147088284Y-102624019D01*
X147037777Y-102573511D01*
X146985586Y-102544890D01*
X146953597Y-102536473D01*
X146931711Y-102538156D01*
X146898039Y-102551625D01*
X146662337Y-102787327D02*
X146638767Y-102810897D01*
X146625298Y-102844569D01*
X146623614Y-102866456D01*
X146632032Y-102898444D01*
X146660653Y-102950635D01*
X146711161Y-103001143D01*
X146763352Y-103029764D01*
X146795340Y-103038182D01*
X146817227Y-103036498D01*
X146850899Y-103023029D01*
X146874469Y-102999459D01*
X146887938Y-102965787D01*
X146889621Y-102943901D01*
X146881203Y-102911913D01*
X146852582Y-102859721D01*
X146802075Y-102809214D01*
X146749883Y-102780593D01*
X146717895Y-102772175D01*
X146696009Y-102773858D01*
X146662337Y-102787327D01*
X146438420Y-103152666D02*
X146579841Y-103294087D01*
X146416533Y-103012928D02*
X146626981Y-103105525D01*
X146473775Y-103258732D01*
D11*
G04 #@! TO.C,M1*
X155587700Y-105562400D02*
G75*
G03X155587700Y-105562400I-4508500J0D01*
G01*
G04 #@! TD*
M02*
