G04 #@! TF.GenerationSoftware,KiCad,Pcbnew,(5.0.2)-1*
G04 #@! TF.CreationDate,2020-06-20T00:38:57-07:00*
G04 #@! TF.ProjectId,G6 Mag Charger,4736204d-6167-4204-9368-61726765722e,rev?*
G04 #@! TF.SameCoordinates,Original*
G04 #@! TF.FileFunction,Copper,L2,Bot*
G04 #@! TF.FilePolarity,Positive*
%FSLAX46Y46*%
G04 Gerber Fmt 4.6, Leading zero omitted, Abs format (unit mm)*
G04 Created by KiCad (PCBNEW (5.0.2)-1) date 6/20/2020 12:38:57 AM*
%MOMM*%
%LPD*%
G01*
G04 APERTURE LIST*
G04 #@! TA.AperFunction,ComponentPad*
%ADD10C,2.500000*%
G04 #@! TD*
G04 #@! TA.AperFunction,SMDPad,CuDef*
%ADD11R,2.000000X1.000000*%
G04 #@! TD*
G04 #@! TA.AperFunction,SMDPad,CuDef*
%ADD12R,1.000000X2.000000*%
G04 #@! TD*
G04 #@! TA.AperFunction,SMDPad,CuDef*
%ADD13R,1.250000X1.250000*%
G04 #@! TD*
G04 #@! TA.AperFunction,BGAPad,CuDef*
%ADD14C,2.000000*%
G04 #@! TD*
G04 #@! TA.AperFunction,ViaPad*
%ADD15C,0.400000*%
G04 #@! TD*
G04 #@! TA.AperFunction,Conductor*
%ADD16C,0.200000*%
G04 #@! TD*
G04 APERTURE END LIST*
D10*
G04 #@! TO.P,M1,1*
G04 #@! TO.N,Net-(C1-Pad1)*
X151079200Y-105562400D03*
D11*
G04 #@! TO.P,M1,2*
G04 #@! TO.N,GND*
X154889200Y-105562400D03*
D12*
X151079200Y-101752400D03*
D11*
X147269200Y-105562400D03*
D12*
X151079200Y-109372400D03*
G04 #@! TD*
D13*
G04 #@! TO.P,P1,1*
G04 #@! TO.N,Net-(C2-Pad1)*
X155194000Y-101447600D03*
G04 #@! TD*
G04 #@! TO.P,P2,1*
G04 #@! TO.N,Net-(D3-Pad2)*
X155194000Y-109677200D03*
G04 #@! TD*
D14*
G04 #@! TO.P,P3,1*
G04 #@! TO.N,GND*
X154432000Y-105613200D03*
G04 #@! TD*
D15*
G04 #@! TO.N,GND*
X148183600Y-109507200D03*
X151993600Y-101854000D03*
X147718400Y-105562400D03*
X155264053Y-102491855D03*
X151079200Y-109110400D03*
G04 #@! TO.N,Net-(C2-Pad1)*
X155244800Y-101304000D03*
X153126400Y-109610400D03*
G04 #@! TO.N,Net-(D1-Pad1)*
X149301200Y-102304000D03*
X151034046Y-103188446D03*
G04 #@! TO.N,Net-(D3-Pad2)*
X155194000Y-109677200D03*
G04 #@! TO.N,Net-(M2-Pad5)*
X154025600Y-101404000D03*
X147218400Y-103733600D03*
G04 #@! TD*
D16*
G04 #@! TO.N,GND*
X146913600Y-105206800D02*
X147269200Y-105562400D01*
X148183600Y-106476800D02*
X147269200Y-105562400D01*
X148183600Y-109507200D02*
X148183600Y-106476800D01*
X151180800Y-101854000D02*
X151079200Y-101752400D01*
X151993600Y-101854000D02*
X151180800Y-101854000D01*
X150379200Y-101752400D02*
X151079200Y-101752400D01*
X148459598Y-101752400D02*
X150379200Y-101752400D01*
X146718399Y-103493599D02*
X148459598Y-101752400D01*
X146718399Y-103973601D02*
X146718399Y-103493599D01*
X148307198Y-105562400D02*
X146718399Y-103973601D01*
X147269200Y-105562400D02*
X148307198Y-105562400D01*
X154889200Y-105562400D02*
X154889200Y-102866708D01*
X154889200Y-102866708D02*
X155264053Y-102491855D01*
G04 #@! TO.N,Net-(C2-Pad1)*
X153126400Y-104994798D02*
X153126400Y-109610400D01*
X153126400Y-103922400D02*
X153126400Y-104994798D01*
X155244800Y-101804000D02*
X153126400Y-103922400D01*
X155244800Y-101304000D02*
X155244800Y-101804000D01*
G04 #@! TO.N,Net-(D1-Pad1)*
X150285646Y-103188446D02*
X151034046Y-103188446D01*
X149301200Y-102304000D02*
X149401200Y-102304000D01*
X149401200Y-102304000D02*
X150285646Y-103188446D01*
G04 #@! TO.N,Net-(M2-Pad5)*
X151138002Y-103733600D02*
X147218400Y-103733600D01*
X151196000Y-103733600D02*
X151138002Y-103733600D01*
X154025600Y-101404000D02*
X153525600Y-101404000D01*
X153525600Y-101404000D02*
X151196000Y-103733600D01*
G04 #@! TD*
M02*
